<?xml version="1.0" encoding="utf-8"?>
<!-- Generator: Adobe Illustrator 22.1.0, SVG Export Plug-In . SVG Version: 6.00 Build 0)  -->
<svg width="174px" height="238px" viewBox="0 0 174 238" version="1.1" xmlns="http://www.w3.org/2000/svg" xmlns:xlink="http://www.w3.org/1999/xlink">
<style type="text/css">
	.st0{fill:#941B80;}
	.st1{fill:#0096AE;}
</style>
<g>
	<path class="st0" d="M141.2,65.9c0-21.4-14.5-47.3-56.8-47.8c-37.4,1-56.8,21.4-56.8,47.9c1,37.7,34.9,47.8,56.8,47.8
		C120.4,113.7,142.2,92.8,141.2,65.9z M113.5,80.3c-0.2,1.3-0.5,2.5-0.9,3.7c0,0.1-0.1,0.2-0.1,0.4h0c-3.9,11.7-15,20.1-28,20.1h0
		c-13,0-24.1-8.4-28-20.1h0c0-0.1-0.1-0.2-0.1-0.4c-0.4-1.2-0.7-2.4-0.9-3.7c-1-4.5-1.5-9.4-1.5-14.4s0.5-9.9,1.5-14.4
		c0.2-1.3,0.5-2.5,0.9-3.7c0-0.1,0.1-0.2,0.1-0.4h0c3.9-11.7,15-20.1,28-20.1h0c13,0,24.1,8.4,28,20.1h0c0,0.1,0.1,0.2,0.1,0.4
		c0.4,1.2,0.7,2.4,0.9,3.7c1,4.5,1.5,9.4,1.5,14.4S114.5,75.8,113.5,80.3z"/>
	<g>
		<g>
			<rect x="1.7" y="176.2" class="st0" width="5.5" height="5.5"/>
			<rect x="15" y="176.2" class="st0" width="5.5" height="5.5"/>
			<rect x="28.3" y="176.2" class="st0" width="5.5" height="5.5"/>
			<rect x="41.7" y="176.2" class="st0" width="5.5" height="5.5"/>
			<rect x="55" y="176.2" class="st0" width="5.5" height="5.5"/>
			<rect x="68.4" y="176.2" class="st0" width="5.5" height="5.5"/>
			<rect x="81.7" y="176.2" class="st0" width="5.5" height="5.5"/>
			<rect x="95.1" y="176.2" class="st0" width="5.5" height="5.5"/>
			<rect x="108.4" y="176.2" class="st0" width="5.5" height="5.5"/>
			<rect x="121.8" y="176.2" class="st0" width="5.5" height="5.5"/>
			<rect x="135.1" y="176.2" class="st0" width="5.5" height="5.5"/>
			<rect x="148.4" y="176.2" class="st0" width="5.5" height="5.5"/>
			<rect x="161.8" y="176.2" class="st0" width="5.5" height="5.5"/>
			<path class="st0" d="M1.7,170.7h165.6V5.2H1.7V170.7z M161.8,165.3H7.1V10.6h154.7V165.3z"/>
		</g>
	</g>
	<g>
		<path class="st1" d="M38.5,227.9l-5.1,5c-1.6-0.1-3.3-0.4-5-0.9c-1.7-0.5-3.5-1.1-5.3-2c-1.8-0.8-4.2-2.3-7.1-4.3
			c-4.3-0.8-7.9-2.8-10.7-6.1c-2.8-3.3-4.2-7.1-4.2-11.5c0-5.3,1.8-9.7,5.4-13.2c3.6-3.5,8.2-5.2,13.7-5.2c5.5,0,10,1.7,13.7,5.2
			c3.6,3.4,5.4,7.8,5.4,13c0,4.4-1.4,8.2-4.1,11.6s-6.3,5.4-10.6,6.3l1.3,0.5c4.2,1.6,7.2,2.4,9,2.4
			C35.9,228.6,37.1,228.4,38.5,227.9z M20.2,194.5c-4,0-7.3,1.3-9.9,3.9c-2.6,2.6-3.9,5.8-3.9,9.7c0,3.8,1.3,7,3.9,9.5
			c2.6,2.5,5.9,3.8,9.9,3.8c3.9,0,7.2-1.3,9.9-3.9c2.7-2.6,4-5.8,4-9.6c0-3.9-1.3-7.1-3.9-9.6C27.5,195.8,24.2,194.5,20.2,194.5z"/>
		<path class="st1" d="M57.2,225.7v-3c-1,1.1-2.1,1.9-3.4,2.5c-1.3,0.6-2.5,0.9-3.8,0.9c-1.5,0-2.8-0.4-4.1-1.1
			c-1.2-0.7-2.2-1.7-2.8-3c-0.6-1.3-1-3.4-1-6.3v-13.4h4.6v13.3c0,2.5,0.4,4.2,1.1,5.1c0.7,1,1.9,1.5,3.7,1.5c2.2,0,4.1-1.1,5.6-3.2
			v-16.7h4.6v23.4H57.2z"/>
		<path class="st1" d="M82.3,211.6v9.9c0,0.8,0.3,1.2,0.8,1.2c0.6,0,1.4-0.4,2.6-1.2v2.8c-1,0.7-1.9,1.1-2.5,1.4
			c-0.6,0.2-1.3,0.4-2,0.4c-2,0-3.1-0.8-3.5-2.3c-2,1.5-4.1,2.3-6.3,2.3c-1.6,0-3-0.5-4.1-1.6c-1.1-1.1-1.6-2.4-1.6-4.1
			c0-1.5,0.5-2.8,1.6-3.9c1.1-1.2,2.6-2.1,4.5-2.8l5.9-2v-1.2c0-2.8-1.4-4.2-4.2-4.2c-2.5,0-5,1.3-7.4,3.9V205
			c1.8-2.1,4.4-3.2,7.7-3.2c2.5,0,4.5,0.7,6.1,2c0.5,0.4,1,1,1.4,1.7c0.4,0.7,0.7,1.4,0.8,2.1C82.2,208.3,82.3,209.7,82.3,211.6z
			 M77.7,221v-6.9l-3.1,1.2c-1.6,0.6-2.7,1.3-3.3,1.9c-0.7,0.6-1,1.4-1,2.4c0,1,0.3,1.8,0.9,2.4c0.6,0.6,1.4,0.9,2.4,0.9
			C75.1,222.8,76.5,222.2,77.7,221z M81.1,189.6l-5.7,7.6h-2.8l3.4-7.6H81.1z"/>
		<path class="st1" d="M89,190.2h4.6v35.5H89V190.2z"/>
		<path class="st1" d="M102.8,192.5c0.8,0,1.4,0.3,2,0.8c0.5,0.5,0.8,1.2,0.8,1.9c0,0.7-0.3,1.4-0.8,1.9c-0.5,0.5-1.2,0.8-2,0.8
			c-0.7,0-1.3-0.3-1.9-0.8c-0.5-0.5-0.8-1.2-0.8-1.9c0-0.7,0.3-1.3,0.8-1.9C101.5,192.8,102.1,192.5,102.8,192.5z M100.5,202.3h4.6
			v23.4h-4.6V202.3z"/>
		<path class="st1" d="M108,206l8.7-8.5v4.8h7.4v4.2h-7.4v11.4c0,2.7,1.1,4,3.3,4c1.7,0,3.4-0.5,5.3-1.7v4.3c-1.8,1-3.7,1.5-5.8,1.5
			c-2.1,0-3.9-0.6-5.3-1.9c-0.4-0.4-0.8-0.8-1.1-1.3c-0.3-0.5-0.5-1.1-0.7-1.8c-0.2-0.8-0.3-2.2-0.3-4.3v-10.4H108V206z"/>
		<path class="st1" d="M145.4,211.6v9.9c0,0.8,0.3,1.2,0.8,1.2c0.6,0,1.4-0.4,2.6-1.2v2.8c-1,0.7-1.9,1.1-2.5,1.4
			c-0.6,0.2-1.3,0.4-2,0.4c-2,0-3.1-0.8-3.5-2.3c-2,1.5-4.1,2.3-6.3,2.3c-1.6,0-3-0.5-4.1-1.6c-1.1-1.1-1.6-2.4-1.6-4.1
			c0-1.5,0.5-2.8,1.6-3.9c1.1-1.2,2.6-2.1,4.5-2.8l5.9-2v-1.2c0-2.8-1.4-4.2-4.2-4.2c-2.5,0-5,1.3-7.4,3.9V205
			c1.8-2.1,4.4-3.2,7.7-3.2c2.5,0,4.5,0.7,6.1,2c0.5,0.4,1,1,1.4,1.7c0.4,0.7,0.7,1.4,0.8,2.1C145.4,208.3,145.4,209.7,145.4,211.6z
			 M140.9,221v-6.9l-3.1,1.2c-1.6,0.6-2.7,1.3-3.3,1.9c-0.7,0.6-1,1.4-1,2.4c0,1,0.3,1.8,0.9,2.4c0.6,0.6,1.4,0.9,2.4,0.9
			C138.3,222.8,139.6,222.2,140.9,221z"/>
		<path class="st1" d="M151.4,224v-5c1.3,0.9,2.6,1.7,4,2.2c1.4,0.6,2.5,0.9,3.4,0.9c1,0,1.8-0.2,2.5-0.7c0.7-0.5,1-1,1-1.7
			c0-0.7-0.2-1.2-0.7-1.7c-0.4-0.4-1.4-1.1-2.9-1.9c-3-1.7-4.9-3.1-5.9-4.3c-0.9-1.2-1.4-2.5-1.4-3.8c0-1.8,0.7-3.3,2.1-4.4
			c1.4-1.1,3.2-1.7,5.4-1.7c2.3,0,4.6,0.6,7,1.9v4.6c-2.7-1.7-5-2.5-6.7-2.5c-0.9,0-1.6,0.2-2.2,0.6c-0.6,0.4-0.8,0.9-0.8,1.5
			c0,0.5,0.2,1.1,0.7,1.6c0.5,0.5,1.4,1.1,2.6,1.8l1.7,0.9c3.9,2.2,5.8,4.6,5.8,7.3c0,1.9-0.7,3.5-2.2,4.7c-1.5,1.2-3.4,1.8-5.8,1.8
			c-1.4,0-2.6-0.1-3.7-0.4C154.4,225.3,153,224.8,151.4,224z"/>
		<path class="st1" d="M164.9,228.3c0-0.7,0.2-1.4,0.5-2c0.3-0.6,0.8-1.1,1.5-1.5s1.3-0.5,2-0.5c0.7,0,1.4,0.2,2,0.5
			c0.6,0.4,1.1,0.8,1.4,1.5c0.3,0.6,0.5,1.3,0.5,2c0,0.7-0.2,1.4-0.5,2c-0.4,0.6-0.8,1.1-1.5,1.4c-0.6,0.3-1.3,0.5-2,0.5
			c-0.7,0-1.4-0.2-2-0.5c-0.6-0.4-1.1-0.8-1.5-1.4C165.1,229.7,164.9,229,164.9,228.3z M165.7,228.3c0,0.6,0.1,1.1,0.4,1.6
			c0.3,0.5,0.7,0.9,1.2,1.2c0.5,0.3,1,0.4,1.6,0.4c0.6,0,1.1-0.1,1.6-0.4c0.5-0.3,0.9-0.7,1.2-1.2c0.3-0.5,0.4-1,0.4-1.6
			c0-0.6-0.1-1.1-0.4-1.6c-0.3-0.5-0.7-0.9-1.2-1.2c-0.5-0.3-1-0.4-1.6-0.4c-0.6,0-1.1,0.1-1.6,0.4c-0.5,0.3-0.9,0.7-1.2,1.2
			C165.8,227.2,165.7,227.7,165.7,228.3z M169.3,226.2c0.4,0,0.7,0.1,1,0.3c0.2,0.2,0.4,0.5,0.4,0.8c0,0.3-0.1,0.6-0.3,0.8
			c-0.2,0.2-0.5,0.3-0.9,0.4v0c0.2,0.1,0.3,0.1,0.4,0.3c0.1,0.1,0.3,0.4,0.5,0.8l0.5,0.8h-1l-0.2-0.4c-0.2-0.3-0.3-0.6-0.5-0.8
			c-0.2-0.2-0.3-0.4-0.4-0.4c-0.1-0.1-0.3-0.1-0.5-0.1H168v1.8h-0.8v-4.3H169.3z M169,228.1c0.3,0,0.5-0.1,0.6-0.2
			c0.1-0.1,0.2-0.3,0.2-0.5c0-0.2-0.1-0.3-0.2-0.4c-0.1-0.1-0.3-0.2-0.6-0.2h-1v1.2H169z"/>
	</g>
	<g>
		<path class="st0" d="M25.5,111.5l1.5-4.9c0.4-1.2,1.7-1.8,2.9-1.3l41.4,18.5c20.4,8.9,43.5,8.9,64,0.1l3.7-1.9
			c1.2-0.5,2.7-0.1,3.5,1v0c0.8,1.2,0.7,2.8-0.4,3.8L111.3,155c-2.8,2.5-6.9,3-10.2,1.2l-74.7-42.2
			C25.6,113.5,25.2,112.4,25.5,111.5z"/>
	</g>
</g>
</svg>
